<?xml version="1.0" standalone="no"?>
<!DOCTYPE svg PUBLIC "-//W3C//DTD SVG 20010904//EN"
 "http://www.w3.org/TR/2001/REC-SVG-20010904/DTD/svg10.dtd">
<svg version="1.0" xmlns="http://www.w3.org/2000/svg"
 width="512.000000pt" height="512.000000pt" viewBox="0 0 512.000000 512.000000"
 preserveAspectRatio="xMidYMid meet">
<metadata>
Created by potrace 1.16, written by Peter Selinger 2001-2019
</metadata>
<g transform="translate(0.000000,512.000000) scale(0.100000,-0.100000)"
fill="#000000" stroke="none">
<path d="M66 4912 c-15 -11 -37 -33 -47 -48 -18 -28 -19 -87 -19 -2033 0
-1962 0 -2004 19 -2035 39 -62 59 -67 304 -76 699 -28 1329 -182 1970 -484
l117 -55 0 2123 0 2123 -88 41 c-590 273 -1333 445 -1992 458 -222 5 -237 4
-264 -14z m888 -657 c304 -52 608 -138 896 -252 181 -72 212 -89 238 -136 16
-30 17 -119 17 -1372 0 -1325 0 -1340 -20 -1375 -13 -22 -38 -44 -68 -59 -54
-26 -42 -28 -242 33 -271 84 -601 155 -905 197 -170 23 -203 35 -235 89 -20
35 -20 45 -20 1410 0 1516 -4 1419 64 1466 46 31 89 31 275 -1z"/>
<path d="M910 3222 l0 -748 90 -12 c163 -22 372 -64 570 -114 107 -27 205 -52
218 -55 l22 -5 -2 713 -3 713 -143 53 c-177 66 -403 131 -595 172 -81 17 -149
31 -152 31 -3 0 -5 -337 -5 -748z"/>
<path d="M912 1879 l3 -302 195 -33 c212 -36 405 -78 572 -124 59 -17 112 -30
118 -30 7 0 9 98 8 297 l-3 297 -60 18 c-154 48 -461 120 -625 147 -100 17
-188 31 -196 31 -12 0 -14 -45 -12 -301z"/>
<path d="M4615 4923 c-660 -55 -1216 -192 -1767 -435 l-138 -60 0 -2124 0
-2123 118 55 c333 157 616 258 967 345 326 81 645 125 1002 139 245 9 265 14
304 76 19 31 19 73 19 2035 0 1946 -1 2005 -19 2033 -41 62 -57 66 -261 64
-102 -1 -203 -3 -225 -5z m-180 -662 c16 -9 38 -32 50 -51 19 -34 20 -50 20
-515 0 -465 -1 -481 -20 -515 -33 -55 -64 -66 -265 -95 -326 -46 -624 -112
-929 -206 l-133 -42 -46 19 c-52 22 -80 54 -92 110 -12 51 -12 807 0 858 18
81 38 95 245 178 271 110 610 204 924 258 172 29 196 29 246 1z m-991 -1571
c14 -5 62 -40 106 -78 99 -87 139 -107 210 -107 71 0 109 20 216 111 55 47 97
76 119 80 61 11 122 -22 154 -83 15 -29 13 -85 -4 -158 -19 -76 -19 -176 -1
-218 28 -67 100 -116 229 -156 89 -27 104 -36 127 -74 39 -63 16 -165 -42
-195 -13 -7 -59 -23 -103 -37 -107 -35 -181 -84 -206 -138 -23 -51 -25 -147
-4 -232 30 -123 11 -187 -67 -228 -63 -32 -106 -18 -195 64 -173 157 -271 158
-441 5 -91 -83 -131 -96 -195 -68 -83 37 -103 100 -72 227 21 85 19 181 -4
232 -25 54 -99 103 -206 138 -44 14 -90 30 -103 37 -58 30 -81 132 -42 195 23
38 38 47 127 74 129 40 201 89 229 156 18 42 18 142 -1 218 -8 33 -14 78 -15
101 0 94 99 167 184 134z"/>
<path d="M4170 3963 c-179 -30 -550 -134 -740 -206 l-115 -44 -3 -263 -2 -262
22 5 c13 2 104 25 203 50 198 51 331 78 535 111 l135 22 3 297 c1 163 -1 296
-5 296 -5 -1 -19 -4 -33 -6z"/>
<path d="M3566 2203 c-10 -63 -62 -160 -117 -218 l-52 -55 51 -52 c56 -57 107
-151 118 -216 7 -47 9 -48 78 -27 27 8 79 15 116 15 37 0 89 -7 116 -15 69
-21 71 -20 78 27 11 65 62 159 118 216 l51 52 -52 55 c-55 58 -107 155 -117
218 -7 42 -9 42 -84 22 -30 -8 -80 -15 -110 -15 -30 0 -80 7 -110 15 -75 20
-77 20 -84 -22z"/>
</g>
</svg>
