<?xml version="1.0" standalone="no"?>
<!DOCTYPE svg PUBLIC "-//W3C//DTD SVG 20010904//EN"
 "http://www.w3.org/TR/2001/REC-SVG-20010904/DTD/svg10.dtd">
<svg version="1.0" xmlns="http://www.w3.org/2000/svg"
 width="64.000000pt" height="64.000000pt" viewBox="0 0 64.000000 64.000000"
 preserveAspectRatio="xMidYMid meet">
<metadata>
Created by potrace 1.16, written by Peter Selinger 2001-2019
</metadata>
<g transform="translate(0.000000,64.000000) scale(0.100000,-0.100000)"
fill="#000000" stroke="none">
<path d="M30 542 c0 -14 275 -282 290 -282 15 0 290 268 290 283 0 4 -130 7
-290 7 -160 0 -290 -3 -290 -8z"/>
<path d="M0 320 l0 -205 102 103 103 102 -103 102 -102 103 0 -205z"/>
<path d="M535 420 l-100 -100 103 -103 102 -102 0 203 c0 111 -1 202 -3 202
-1 0 -47 -45 -102 -100z"/>
<path d="M127 202 c-53 -54 -97 -101 -97 -105 0 -4 130 -7 290 -7 160 0 290 3
290 7 0 4 -44 51 -97 105 l-97 97 -38 -34 c-21 -19 -47 -35 -58 -35 -11 0 -37
16 -58 35 l-38 34 -97 -97z"/>
</g>
</svg>
