<?xml version="1.0" standalone="no"?>
<!DOCTYPE svg PUBLIC "-//W3C//DTD SVG 20010904//EN"
 "http://www.w3.org/TR/2001/REC-SVG-20010904/DTD/svg10.dtd">
<svg version="1.0" xmlns="http://www.w3.org/2000/svg"
 width="64.000000pt" height="64.000000pt" viewBox="0 0 64.000000 64.000000"
 preserveAspectRatio="xMidYMid meet">
<metadata>
Created by potrace 1.16, written by Peter Selinger 2001-2019
</metadata>
<g transform="translate(0.000000,64.000000) scale(0.100000,-0.100000)"
fill="#000000" stroke="none">
<path d="M232 620 c-52 -32 -72 -74 -72 -152 0 -68 0 -68 -28 -68 -15 0 -33
-5 -40 -12 -17 -17 -17 -359 0 -376 17 -17 439 -17 456 0 17 17 17 359 0 376
-7 7 -25 12 -40 12 -28 0 -28 0 -28 68 0 78 -20 120 -72 152 -45 27 -131 27
-176 0z m137 -54 c35 -19 51 -55 51 -116 l0 -50 -100 0 -100 0 0 53 c1 59 16
94 51 113 31 17 64 17 98 0z"/>
</g>
</svg>
